<!-- PokezoneBuddy – Calendar + Location Marker (inline colors, no CSS vars/filters) -->
<svg xmlns="http://www.w3.org/2000/svg" width="1024" height="1024" viewBox="0 0 1024 1024" role="img" aria-labelledby="title desc">
  <title id="title">PokezoneBuddy App Icon</title>
  <desc id="desc">Rundes pastell-lila App-Icon mit weißem Kalender und einem gelben Location Marker.</desc>

  <defs>
    <linearGradient id="bgGrad" x1="0" y1="0" x2="1" y2="1">
      <stop offset="0%" stop-color="#D8B6FF"/>
      <stop offset="100%" stop-color="#B694F7"/>
    </linearGradient>

    <g id="markerSymbol">
      <path d="M0,-90 C49,-90 90,-49 90,0 C90,52 56,95 0,150 C-56,95 -90,52 -90,0 C-90,-49 -49,-90 0,-90Z"
            fill="#FBE288"/>
      <circle cx="0" cy="-20" r="28" fill="#FFFFFF"/>
    </g>
  </defs>

  <!-- Lila Hintergrund mit Gradient -->
  <rect x="32" y="32" width="960" height="960" rx="220" fill="url(#bgGrad)"/>

  <!-- Kalender (zentriert) -->
  <g transform="translate(512,520)">
    <rect x="-300" y="-260" width="600" height="480" rx="36" fill="#FFFFFF"/>
    <rect x="-300" y="-260" width="600" height="110" rx="36" fill="#F4EEFF"/>

    <!-- Register oben -->
    <g fill="#B694F7">
      <rect x="-220" y="-288" width="40" height="56" rx="10"/>
      <rect x="-20"  y="-288" width="40" height="56" rx="10"/>
      <rect x="180"  y="-288" width="40" height="56" rx="10"/>
    </g>

    <!-- Rasterlinien -->
    <g stroke="#DCD6F7" stroke-width="6">
      <path d="M -150,-100 V 180"/>
      <path d="M   0,-100 V 180"/>
      <path d="M 150,-100 V 180"/>
      <path d="M -260,-10 H 260"/>
      <path d="M -260, 85 H 260"/>
    </g>

    <!-- Marker unten rechts -->
    <g transform="translate(240,180) scale(0.75)">
      <use href="#markerSymbol"/>
    </g>
  </g>
</svg>
